<svg id="ecommerce" xmlns="http://www.w3.org/2000/svg" width="29.882" height="27.306" viewBox="0 0 29.882 27.306">
  <path id="Path_1456" data-name="Path 1456" d="M24.171,22.676H12.463a3.11,3.11,0,0,1-2.989-2.261L5.516,6.6A1.864,1.864,0,0,0,3.723,5.245H.623A.623.623,0,1,1,.623,4h3.1A3.11,3.11,0,0,1,6.712,6.261L7.493,8.98h20.52a1.866,1.866,0,0,1,1.788,2.4l-2.678,9.151A3.108,3.108,0,0,1,24.171,22.676ZM7.849,10.225l2.823,9.851a1.861,1.861,0,0,0,1.792,1.355H24.171a1.879,1.879,0,0,0,1.763-1.267l2.676-9.136a.624.624,0,0,0-.6-.8Z" transform="translate(0 -1.596)" fill="#146ca4"/>
  <path id="Path_1457" data-name="Path 1457" d="M11.49,24.98a2.49,2.49,0,1,1,2.49-2.49A2.493,2.493,0,0,1,11.49,24.98Zm0-3.735a1.245,1.245,0,1,0,1.245,1.245A1.246,1.246,0,0,0,11.49,21.245Z" transform="translate(2.206 2.326)" fill="#146ca4"/>
  <path id="Path_1458" data-name="Path 1458" d="M18.49,24.98a2.49,2.49,0,1,1,2.49-2.49A2.493,2.493,0,0,1,18.49,24.98Zm0-3.735a1.245,1.245,0,1,0,1.245,1.245A1.246,1.246,0,0,0,18.49,21.245Z" transform="translate(3.921 2.326)" fill="#146ca4"/>
  <path id="Path_1459" data-name="Path 1459" d="M120.57,158.855h-2.285a.571.571,0,0,1-.571-.571v-.809a6.249,6.249,0,0,1-1.284-.527l-.6.6a.571.571,0,0,1-.808,0l-1.714-1.714a.571.571,0,0,1,0-.808l.6-.6a6.248,6.248,0,0,1-.527-1.284h-.809a.571.571,0,0,1-.571-.571v-2.285a.571.571,0,0,1,.571-.571h.809a6.235,6.235,0,0,1,.527-1.284l-.6-.6a.571.571,0,0,1,0-.808l1.714-1.714a.571.571,0,0,1,.808,0l.6.6a6.236,6.236,0,0,1,1.284-.527v-.809a.571.571,0,0,1,.571-.571h2.285a.571.571,0,0,1,.571.571v.809a6.237,6.237,0,0,1,1.284.527l.6-.6a.571.571,0,0,1,.808,0l1.714,1.714a.571.571,0,0,1,0,.808l-.6.6a6.235,6.235,0,0,1,.527,1.284h.809a.571.571,0,0,1,.571.571v2.285a.571.571,0,0,1-.571.571h-.809a6.248,6.248,0,0,1-.527,1.284l.6.6a.571.571,0,0,1,0,.808l-1.714,1.714a.571.571,0,0,1-.808,0l-.6-.6a6.249,6.249,0,0,1-1.284.527v.809A.571.571,0,0,1,120.57,158.855Zm-1.714-1.143H120v-.686a.571.571,0,0,1,.458-.56,5.081,5.081,0,0,0,1.749-.716.573.573,0,0,1,.713.077l.507.507.906-.906-.507-.507a.571.571,0,0,1-.077-.713,5.087,5.087,0,0,0,.716-1.749.572.572,0,0,1,.56-.458h.686v-1.143h-.686a.571.571,0,0,1-.56-.458,5.072,5.072,0,0,0-.716-1.749.572.572,0,0,1,.077-.714l.507-.507-.906-.906-.507.507a.571.571,0,0,1-.714.076,5.075,5.075,0,0,0-1.749-.716.572.572,0,0,1-.458-.56v-.686h-1.143v.686a.572.572,0,0,1-.458.56,5.091,5.091,0,0,0-1.749.716.571.571,0,0,1-.714-.076l-.507-.507-.906.906.507.507a.572.572,0,0,1,.077.714,5.087,5.087,0,0,0-.716,1.749.572.572,0,0,1-.56.458h-.686V152h.686a.571.571,0,0,1,.56.458,5.081,5.081,0,0,0,.716,1.749.571.571,0,0,1-.077.713l-.507.507.906.906.507-.507a.572.572,0,0,1,.713-.077,5.087,5.087,0,0,0,1.749.716.572.572,0,0,1,.458.56Zm0,0" transform="translate(-101.224 -144)" fill="#146ca4"/>
  <path id="Path_1460" data-name="Path 1460" d="M164,200a4,4,0,1,1,4-4A4,4,0,0,1,164,200Zm0-6.856A2.857,2.857,0,1,0,166.856,196,2.86,2.86,0,0,0,164,193.143Zm0,0" transform="translate(-145.796 -188.572)" fill="#146ca4"/>
  <rect id="Rectangle_27" data-name="Rectangle 27" width="15.779" height="6.542" transform="translate(10.006 8.622)" fill="#fff"/>
  <path id="Path_1461" data-name="Path 1461" d="M42.13,35.54a.358.358,0,0,1-.232-.63l1.416-1.205L41.9,32.5a.358.358,0,0,1,.465-.545L44.1,33.432a.358.358,0,0,1,0,.545l-1.736,1.477A.358.358,0,0,1,42.13,35.54Z" transform="translate(-22.023 -19.973)" fill="#146ca4"/>
  <path id="Path_1462" data-name="Path 1462" d="M27.469,35.54a.358.358,0,0,1-.232-.085L25.5,33.978a.358.358,0,0,1,0-.545l1.736-1.477a.358.358,0,0,1,.465.545l-1.417,1.205L27.7,34.91a.358.358,0,0,1-.232.63Z" transform="translate(-11.492 -19.973)" fill="#146ca4"/>
  <path id="Path_1463" data-name="Path 1463" d="M32.987,34.133a.362.362,0,0,1-.125-.023.358.358,0,0,1-.211-.46l2.412-6.5a.358.358,0,1,1,.671.25l-2.412,6.5A.358.358,0,0,1,32.987,34.133Z" transform="translate(-16.151 -16.859)" fill="#146ca4"/>
</svg>
